{"glyphs":{":":{"x_min":0,"x_max":235,"ha":235,"o":"m 49 62 q 49 36 68 17 q 88 -2 117 -2 q 146 -2 166 17 q 186 36 186 62 q 186 88 166 107 q 146 126 117 126 q 88 126 68 107 q 49 88 49 62 z m 49 378 q 49 352 68 333 q 88 314 117 314 q 146 314 166 333 q 186 352 186 378 q 186 404 166 423 q 146 442 117 442 q 88 442 68 423 q 49 404 49 378 z"},"$":{"x_min":0,"x_max":860,"ha":860,"o":"m 137 122 l 49 0 l 351 0 l 351 -100 l 509 -100 l 509 0 l 651 0 q 793 21 811 122 l 811 222 q 793 324 651 340 l 509 340 l 509 438 l 811 438 l 811 560 l 509 560 l 509 657 l 351 657 l 351 560 l 209 560 q 67 539 49 438 l 49 338 q 67 234 209 218 l 351 218 l 351 122 z m 351 438 l 351 340 l 287 340 q 209 340 209 387 q 209 417 229 428 q 249 438 291 438 z m 509 218 l 573 218 q 612 218 632 208 q 651 197 651 173 q 651 143 631 132 q 611 122 569 122 l 509 122 z"},"?":{"x_min":0,"x_max":771,"ha":771,"o":"m 562 560 l 112 560 l 24 438 l 480 438 q 522 438 542 428 q 562 419 562 389 q 562 365 542 356 q 523 346 484 346 l 253 346 q 111 330 93 226 l 105 189 l 229 189 l 236 208 q 239 219 249 222 q 259 224 291 224 l 562 224 q 704 240 722 342 l 722 438 q 704 539 562 560 z m 101 62 q 101 36 120 17 q 140 -2 169 -2 q 198 -2 218 17 q 238 36 238 62 q 238 88 218 107 q 198 126 169 126 q 140 126 120 107 q 101 88 101 62 z"},"<":{"x_min":0,"x_max":534,"ha":534,"o":"m 510 560 l 234 279 l 509 0 l 299 0 l 24 279 l 301 560 z"},"'":{"x_min":0,"x_max":220,"ha":220,"o":"m 49 560 l 171 560 l 171 411 l 49 324 z"},"=":{"x_min":0,"x_max":585,"ha":585,"o":"m 117 440 l 556 440 l 469 318 l 29 318 z m 117 238 l 556 238 l 469 116 l 29 116 z"},"a":{"x_min":0,"x_max":858,"ha":858,"o":"m 466 0 l 24 0 l 302 560 l 556 560 l 834 0 l 646 0 l 429 438 l 272 122 l 553 122 z"},"L":{"x_min":0,"x_max":726,"ha":726,"o":"m 209 560 l 209 122 l 702 122 l 616 0 l 49 0 l 49 560 z"},"3":{"x_min":0,"x_max":800,"ha":800,"o":"m 51 340 l 137 218 l 513 218 q 591 218 591 175 l 591 169 q 591 137 571 130 q 551 122 509 122 l 49 122 l 49 0 l 591 0 q 733 21 751 122 l 751 222 q 751 241 742 256 q 734 270 724 281 q 738 301 744 319 q 751 337 751 359 l 751 438 q 733 539 591 560 l 49 560 l 49 438 l 509 438 q 551 438 571 430 q 591 421 591 385 q 591 360 572 350 q 554 340 509 340 z"},";":{"x_min":0,"x_max":235,"ha":235,"o":"m 49 378 q 49 404 68 423 q 88 442 117 442 q 146 442 166 423 q 186 404 186 378 q 186 352 166 333 q 146 314 117 314 q 88 314 68 333 q 49 352 49 378 z m 49 62 q 49 88 68 107 q 88 126 117 126 q 146 126 166 107 q 186 88 186 62 l 186 6 q 164 -24 142 -44 q 119 -65 77 -83 l 88 3 q 69 14 59 32 q 49 50 49 62 z"},"J":{"x_min":0,"x_max":860,"ha":860,"o":"m 811 560 l 422 560 l 509 438 l 651 438 l 651 189 q 651 122 573 122 l 287 122 q 209 122 209 189 l 209 210 l 49 210 l 49 120 q 67 16 209 0 l 651 0 q 793 16 811 120 z"},"V":{"x_min":0,"x_max":868,"ha":868,"o":"m 574 560 l 29 560 l 307 0 l 561 0 l 839 560 l 652 560 l 434 121 l 276 438 l 487 438 z"},"\"":{"x_min":0,"x_max":393,"ha":393,"o":"m 222 560 l 344 560 l 344 411 l 222 324 z m 49 560 l 171 560 l 171 411 l 49 324 z"},"7":{"x_min":0,"x_max":759,"ha":759,"o":"m 122 0 l 503 438 l 49 438 l 49 560 l 710 560 l 710 450 l 323 0 z"},"S":{"x_min":0,"x_max":860,"ha":860,"o":"m 811 560 l 209 560 q 67 539 49 438 l 49 338 q 67 236 209 220 l 573 220 q 651 220 651 173 q 651 143 631 132 q 611 122 569 122 l 49 122 l 49 0 l 651 0 q 793 21 811 122 l 811 222 q 793 326 651 342 l 287 342 q 248 342 228 352 q 209 363 209 387 q 209 417 229 428 q 249 438 291 438 l 723 438 z"},"}":{"x_min":0,"x_max":858,"ha":858,"o":"m 392 560 l 834 560 l 556 0 l 302 0 l 24 560 l 212 560 l 429 122 l 586 438 l 305 438 z"},"Z":{"x_min":0,"x_max":840,"ha":840,"o":"m 49 0 l 49 117 l 511 438 l 49 438 l 49 560 l 771 560 l 771 443 l 312 122 l 771 122 l 771 0 z"},"x":{"x_min":0,"x_max":810,"ha":810,"o":"m 786 560 l 510 279 l 785 0 l 575 0 l 405 172 l 235 0 l 25 0 l 300 279 l 24 560 l 233 560 l 405 385 l 577 560 z"},")":{"x_min":0,"x_max":538,"ha":538,"o":"m 329 455 q 329 527 247 527 l 49 527 l 49 649 l 329 649 q 471 628 489 527 l 489 30 q 471 -74 329 -90 l 49 -90 l 49 32 l 251 32 q 329 32 329 99 z"},"&":{"x_min":0,"x_max":930,"ha":930,"o":"m 209 169 q 209 137 229 130 q 249 122 291 122 l 610 122 l 610 218 l 305 218 l 392 340 l 901 340 l 814 218 l 770 218 l 770 0 l 209 0 q 67 21 49 122 l 49 222 q 49 241 58 256 q 68 272 78 283 q 64 303 56 320 q 49 337 49 359 l 49 438 q 67 539 209 560 l 575 560 q 717 539 735 438 l 735 415 l 569 415 q 561 430 542 434 q 524 438 493 438 l 291 438 q 249 438 229 430 q 209 421 209 385 z"},"_":{"x_min":0,"x_max":599,"ha":599,"o":"m 92 104 l 575 104 l 488 -18 l 4 -18 z"},"v":{"x_min":0,"x_max":858,"ha":858,"o":"m 24 560 l 302 0 l 556 0 l 834 560 l 647 560 l 429 121 l 211 560 z"},"O":{"x_min":0,"x_max":860,"ha":860,"o":"m 49 438 l 49 120 q 67 16 209 0 l 651 0 q 793 16 811 120 l 811 438 q 793 539 651 560 l 209 560 q 67 539 49 438 z m 291 438 l 569 438 q 651 438 651 366 l 651 189 q 651 122 573 122 l 287 122 q 209 122 209 189 l 209 366 q 209 438 291 438 z"},"(":{"x_min":0,"x_max":538,"ha":538,"o":"m 209 455 q 209 527 291 527 l 489 527 l 489 649 l 209 649 q 67 628 49 527 l 49 30 q 67 -74 209 -90 l 489 -90 l 489 32 l 287 32 q 209 32 209 99 z"},"C":{"x_min":0,"x_max":860,"ha":860,"o":"m 49 438 l 49 120 q 67 16 209 0 l 651 0 q 793 16 811 120 l 811 210 l 651 210 l 651 189 q 651 122 573 122 l 287 122 q 209 122 209 189 l 209 366 q 209 438 291 438 l 569 438 q 651 438 651 366 l 651 346 l 811 346 l 811 438 q 793 539 651 560 l 209 560 q 67 539 49 438 z"},"W":{"x_min":0,"x_max":1103,"ha":1103,"o":"m 49 120 q 67 16 209 0 l 1054 0 l 1054 560 l 894 560 l 894 122 l 631 122 l 631 560 l 471 560 l 471 122 l 287 122 q 209 122 209 189 l 209 560 l 49 560 z"},"A":{"x_min":0,"x_max":858,"ha":858,"o":"m 376 122 l 586 122 l 429 438 l 212 0 l 24 0 l 302 560 l 556 560 l 834 0 l 289 0 z"},"f":{"x_min":0,"x_max":799,"ha":799,"o":"m 264 339 l 209 262 l 209 366 q 209 438 291 438 l 750 438 l 750 560 l 209 560 q 67 539 49 438 l 49 0 l 209 0 l 209 217 l 661 217 l 748 339 z"},"Q":{"x_min":0,"x_max":860,"ha":860,"o":"m 811 122 l 811 440 q 793 544 651 560 l 209 560 q 67 544 49 440 l 49 122 q 67 21 209 0 l 651 0 q 793 21 811 122 z m 569 122 l 291 122 q 209 122 209 194 l 209 371 q 209 438 287 438 l 573 438 q 651 438 651 371 l 651 194 q 651 122 569 122 z m 264 343 l 264 222 l 418 222 l 505 343 z"},"w":{"x_min":0,"x_max":1268,"ha":1268,"o":"m 435 560 l 541 346 l 427 122 l 210 560 l 24 560 l 302 0 l 555 0 l 634 158 l 713 0 l 966 0 l 1244 560 l 1058 560 l 841 122 l 621 560 z"},"-":{"x_min":0,"x_max":529,"ha":529,"o":"m 117 339 l 29 217 l 413 217 l 500 339 z"},"E":{"x_min":0,"x_max":794,"ha":794,"o":"m 264 339 l 209 262 l 209 438 l 750 438 l 750 560 l 49 560 l 49 0 l 664 0 l 751 122 l 209 122 l 209 217 l 662 217 l 749 339 z"},"s":{"x_min":0,"x_max":860,"ha":860,"o":"m 49 0 l 651 0 q 793 21 811 122 l 811 222 q 793 324 651 340 l 287 340 q 209 340 209 387 q 209 417 229 428 q 249 438 291 438 l 811 438 l 811 560 l 209 560 q 67 539 49 438 l 49 338 q 67 234 209 218 l 573 218 q 612 218 632 208 q 651 197 651 173 q 651 143 631 132 q 611 122 569 122 l 137 122 z"},">":{"x_min":0,"x_max":534,"ha":534,"o":"m 233 560 l 510 279 l 235 0 l 25 0 l 300 279 l 24 560 z"},"l":{"x_min":0,"x_max":731,"ha":731,"o":"m 209 560 l 209 189 q 209 122 287 122 l 707 122 l 621 0 l 209 0 q 67 16 49 120 l 49 560 z"},"8":{"x_min":0,"x_max":860,"ha":860,"o":"m 209 560 q 67 539 49 438 l 49 359 q 49 337 56 320 q 64 303 78 283 q 68 272 58 256 q 49 241 49 222 l 49 122 q 67 21 209 0 l 651 0 q 793 21 811 122 l 811 222 q 811 241 802 256 q 792 272 782 283 q 796 303 804 320 q 811 337 811 359 l 811 438 q 793 539 651 560 z m 209 169 l 209 385 q 209 421 229 430 q 249 438 291 438 l 569 438 q 611 438 631 430 q 651 421 651 385 q 651 360 632 350 q 614 340 569 340 l 392 340 l 305 218 l 573 218 q 651 218 651 175 l 651 169 q 651 137 631 130 q 611 122 569 122 l 291 122 q 249 122 229 130 q 209 137 209 169 z"},"\\":{"x_min":0,"x_max":809,"ha":809,"o":"m 785 0 l 575 0 l 24 560 l 233 560 z"},"e":{"x_min":0,"x_max":805,"ha":805,"o":"m 264 339 l 209 262 l 209 366 q 209 438 291 438 l 756 438 l 756 560 l 209 560 q 67 539 49 438 l 49 120 q 67 16 209 0 l 670 0 l 757 122 l 287 122 q 209 122 209 189 l 209 217 l 668 217 l 755 339 z"},"b":{"x_min":0,"x_max":860,"ha":860,"o":"m 49 560 l 49 0 l 651 0 q 793 21 811 122 l 811 222 q 811 241 802 256 q 792 272 782 283 q 796 303 804 320 q 811 337 811 359 l 811 438 q 793 539 651 560 z m 393 340 l 306 218 l 573 218 q 651 218 651 175 l 651 169 q 651 137 631 130 q 611 122 569 122 l 210 122 l 210 438 l 569 438 q 611 438 631 430 q 651 421 651 385 q 651 360 632 350 q 614 340 569 340 z"},"%":{"x_min":0,"x_max":1352,"ha":1352,"o":"m 49 437 q 67 538 209 559 l 442 559 q 584 538 602 437 l 602 313 l 845 560 l 1054 560 l 896 399 q 901 401 910 402 l 1143 402 q 1285 381 1303 280 l 1303 120 q 1285 16 1143 0 l 910 0 q 768 16 750 120 l 750 251 l 502 0 l 293 0 l 448 158 q 447 157 442 157 l 209 157 q 67 173 49 277 z m 291 437 q 209 437 209 365 l 209 346 q 209 279 287 279 l 364 279 q 442 279 442 346 l 442 365 q 442 437 360 437 z m 992 280 q 910 280 910 208 l 910 189 q 910 122 988 122 l 1065 122 q 1143 122 1143 189 l 1143 208 q 1143 280 1061 280 z"},"m":{"x_min":0,"x_max":1110,"ha":1110,"o":"m 900 0 l 1061 0 l 1061 560 l 775 560 l 555 121 l 335 560 l 49 560 l 49 0 l 210 0 l 210 440 l 431 0 l 679 0 l 900 440 z"},"#":{"x_min":0,"x_max":865,"ha":865,"o":"m 195 0 l 195 109 l 29 109 l 117 231 l 195 231 l 195 325 l 29 325 l 117 447 l 195 447 l 195 560 l 355 560 l 355 447 l 509 447 l 509 560 l 669 560 l 669 447 l 836 447 l 749 325 l 669 325 l 669 231 l 836 231 l 749 109 l 669 109 l 669 0 l 509 0 l 509 109 l 355 109 l 355 0 z m 509 325 l 355 325 l 355 231 l 509 231 z"},",":{"x_min":0,"x_max":235,"ha":235,"o":"m 49 62 q 49 88 68 107 q 88 126 117 126 q 146 126 166 107 q 186 88 186 62 l 186 6 q 164 -24 142 -44 q 119 -65 77 -83 l 88 3 q 69 14 59 32 q 49 50 49 62 z"},"n":{"x_min":0,"x_max":859,"ha":859,"o":"m 649 0 l 810 0 l 810 560 l 649 560 l 649 339 l 209 560 l 49 560 l 49 0 l 209 0 l 209 402 l 593 213 l 649 293 z"},"h":{"x_min":0,"x_max":859,"ha":859,"o":"m 649 0 l 810 0 l 810 560 l 649 560 l 649 339 l 264 339 l 209 262 l 209 560 l 49 560 l 49 0 l 209 0 l 209 217 l 593 217 l 649 295 z"},"z":{"x_min":0,"x_max":840,"ha":840,"o":"m 49 0 l 49 117 l 511 438 l 49 438 l 135 560 l 771 560 l 771 443 l 312 122 l 771 122 l 684 0 z"},"B":{"x_min":0,"x_max":860,"ha":860,"o":"m 393 340 l 306 218 l 573 218 q 651 218 651 175 l 651 169 q 651 137 631 130 q 611 122 569 122 l 393 122 l 305 0 l 651 0 q 793 21 811 122 l 811 222 q 811 241 802 256 q 792 272 782 283 q 796 303 804 320 q 811 337 811 359 l 811 438 q 793 539 651 560 l 49 560 l 49 0 l 210 0 l 210 438 l 569 438 q 611 438 631 430 q 651 421 651 385 q 651 360 632 350 q 614 340 569 340 z"},"K":{"x_min":0,"x_max":820,"ha":820,"o":"m 212 257 l 529 257 l 616 0 l 796 0 l 691 320 l 795 560 l 616 560 l 528 379 l 265 379 l 212 306 l 209 306 l 209 560 l 49 560 l 49 0 l 209 0 l 209 258 z"},"R":{"x_min":0,"x_max":860,"ha":860,"o":"m 49 560 l 49 0 l 210 0 l 210 438 l 569 438 q 651 438 651 366 l 651 347 q 651 280 573 280 l 393 280 l 306 158 l 547 158 l 630 0 l 810 0 l 725 175 q 798 205 811 278 l 811 438 q 793 539 651 560 z"},"T":{"x_min":0,"x_max":765,"ha":765,"o":"m 112 560 l 24 438 l 302 438 l 302 0 l 462 0 l 462 438 l 654 438 l 741 560 z"},"P":{"x_min":0,"x_max":860,"ha":860,"o":"m 49 0 l 210 0 l 210 438 l 569 438 q 651 438 651 366 l 651 347 q 651 280 573 280 l 393 280 l 306 158 l 651 158 q 793 174 811 278 l 811 438 q 793 539 651 560 l 49 560 z"},"|":{"x_min":0,"x_max":258,"ha":258,"o":"m 209 -127 l 209 687 l 49 687 l 49 -127 z"},"t":{"x_min":0,"x_max":800,"ha":800,"o":"m 49 560 l 751 560 l 751 438 l 480 438 l 480 0 l 320 0 l 320 438 l 49 438 z"},"M":{"x_min":0,"x_max":1101,"ha":1101,"o":"m 1052 440 q 1034 544 892 560 l 49 560 l 49 0 l 209 0 l 209 438 l 472 438 l 472 0 l 632 0 l 632 438 l 814 438 q 892 438 892 371 l 892 0 l 1052 0 z"},"g":{"x_min":0,"x_max":860,"ha":860,"o":"m 394 220 l 569 220 q 611 220 631 210 q 651 199 651 169 q 651 122 573 122 l 287 122 q 209 122 209 189 l 209 366 q 209 438 291 438 l 724 438 l 810 560 l 209 560 q 67 539 49 438 l 49 120 q 67 16 209 0 l 651 0 q 793 16 811 120 l 811 220 q 793 321 651 342 l 306 342 z"},"j":{"x_min":0,"x_max":731,"ha":731,"o":"m 440 438 l 522 438 l 522 189 q 522 122 444 122 l 111 122 l 24 0 l 522 0 q 664 16 682 120 l 682 560 l 440 560 z"},"i":{"x_min":0,"x_max":259,"ha":259,"o":"m 49 560 l 210 560 l 210 0 l 49 0 z"},"y":{"x_min":0,"x_max":860,"ha":860,"o":"m 49 0 l 137 122 l 569 122 q 611 122 631 132 q 651 143 651 173 l 651 218 l 209 218 q 67 234 49 338 l 49 560 l 209 560 l 209 387 q 209 340 287 340 l 651 340 l 651 560 l 811 560 l 811 122 q 793 21 651 0 z"},"@":{"x_min":0,"x_max":1085,"ha":1085,"o":"m 209 99 l 209 455 q 209 527 291 527 l 794 527 q 876 527 876 455 l 876 269 q 876 212 819 203 l 819 360 q 801 461 659 482 l 426 482 q 284 461 266 360 l 266 200 q 284 96 426 80 l 876 80 q 1018 96 1036 200 l 1036 527 q 1018 628 876 649 l 209 649 q 67 628 49 527 l 49 30 q 67 -74 209 -90 l 941 -90 l 1027 32 l 287 32 q 209 32 209 99 z m 508 360 l 577 360 q 659 360 659 288 l 659 202 l 504 202 q 426 202 426 269 l 426 288 q 426 360 508 360 z"},".":{"x_min":0,"x_max":235,"ha":235,"o":"m 49 62 q 49 36 68 17 q 88 -2 117 -2 q 146 -2 166 17 q 186 36 186 62 q 186 88 166 107 q 146 126 117 126 q 88 126 68 107 q 49 88 49 62 z"},"p":{"x_min":0,"x_max":860,"ha":860,"o":"m 49 0 l 210 0 l 210 438 l 569 438 q 651 438 651 366 l 651 347 q 651 280 573 280 l 393 280 l 306 158 l 651 158 q 793 174 811 278 l 811 438 q 793 539 651 560 l 49 560 z"},"X":{"x_min":0,"x_max":810,"ha":810,"o":"m 291 257 l 204 0 l 24 0 l 129 320 l 25 560 l 204 560 l 291 379 l 291 306 l 344 379 l 518 379 l 606 560 l 785 560 l 681 320 l 786 0 l 606 0 l 519 257 z"},"*":{"x_min":0,"x_max":295,"ha":295,"o":"m 171 411 l 142 452 l 112 411 l 38 461 l 79 499 l 34 511 l 59 587 l 103 566 l 97 611 l 184 611 l 177 566 l 227 587 l 261 511 l 209 496 l 241 463 z"},"Y":{"x_min":0,"x_max":860,"ha":860,"o":"m 49 277 q 67 173 209 157 l 350 157 l 350 0 l 510 0 l 510 157 l 651 157 q 793 173 811 277 l 811 560 l 651 560 l 651 346 q 651 279 573 279 l 287 279 q 209 279 209 346 l 209 560 l 49 560 z"},"c":{"x_min":0,"x_max":805,"ha":805,"o":"m 209 366 q 209 438 291 438 l 756 438 l 756 560 l 209 560 q 67 539 49 438 l 49 120 q 67 16 209 0 l 670 0 l 756 122 l 287 122 q 209 122 209 189 z"},"!":{"x_min":0,"x_max":258,"ha":258,"o":"m 60 62 q 60 36 80 17 q 99 -2 128 -2 q 157 -2 177 17 q 197 36 197 62 q 197 88 177 107 q 157 126 128 126 q 99 126 80 107 q 60 88 60 62 z m 192 195 l 209 368 l 209 560 l 49 560 l 49 368 l 65 195 z"},"/":{"x_min":0,"x_max":809,"ha":809,"o":"m 785 560 l 234 0 l 24 0 l 576 560 z"},"[":{"x_min":0,"x_max":491,"ha":491,"o":"m 209 32 l 209 528 l 442 528 l 442 650 l 49 650 l 49 -90 l 442 -90 l 442 32 z"},"6":{"x_min":0,"x_max":860,"ha":860,"o":"m 569 220 q 611 220 631 210 q 651 199 651 169 q 651 122 573 122 l 287 122 q 209 122 209 189 l 209 220 z m 209 366 q 209 438 291 438 l 724 438 l 810 560 l 209 560 q 67 539 49 438 l 49 120 q 67 16 209 0 l 651 0 q 793 16 811 120 l 811 220 q 793 321 651 342 l 263 342 l 209 267 z"},"r":{"x_min":0,"x_max":860,"ha":860,"o":"m 49 560 l 49 0 l 210 0 l 210 438 l 569 438 q 651 438 651 366 l 651 347 q 651 280 573 280 l 393 280 l 306 158 l 547 158 l 630 0 l 810 0 l 725 175 q 798 205 811 278 l 811 438 q 793 539 651 560 z"},"2":{"x_min":0,"x_max":860,"ha":860,"o":"m 137 560 l 651 560 q 793 539 811 438 l 811 338 q 793 236 651 220 l 287 220 q 209 220 209 173 q 209 143 229 132 q 249 122 291 122 l 811 122 l 811 0 l 209 0 q 67 21 49 122 l 49 222 q 67 326 209 342 l 573 342 q 612 342 632 352 q 651 363 651 387 q 651 417 631 428 q 611 438 569 438 l 49 438 z"},"{":{"x_min":0,"x_max":860,"ha":860,"o":"m 811 560 l 209 560 q 67 539 49 438 l 49 338 q 67 236 209 220 l 573 220 q 651 220 651 173 q 651 143 631 132 q 611 122 569 122 l 49 122 l 49 0 l 651 0 q 793 21 811 122 l 811 222 q 793 326 651 342 l 287 342 q 248 342 228 352 q 209 363 209 387 q 209 417 229 428 q 249 438 291 438 l 811 438 z"},"9":{"x_min":0,"x_max":860,"ha":860,"o":"m 291 340 q 249 340 229 350 q 209 361 209 391 q 209 438 287 438 l 573 438 q 651 438 651 371 l 651 340 z m 651 194 q 651 122 569 122 l 136 122 l 50 0 l 651 0 q 793 21 811 122 l 811 440 q 793 544 651 560 l 209 560 q 67 544 49 440 l 49 340 q 67 239 209 218 l 597 218 l 651 293 z"}," ":{"x_min":0,"x_max":398,"ha":398,"o":""},"I":{"x_min":0,"x_max":761,"ha":761,"o":"m 24 438 l 300 438 l 300 122 l 110 122 l 24 0 l 650 0 l 737 122 l 460 122 l 460 438 l 650 438 l 737 560 l 110 560 z"},"H":{"x_min":0,"x_max":859,"ha":859,"o":"m 649 0 l 810 0 l 810 560 l 649 560 l 649 339 l 264 339 l 209 262 l 209 560 l 49 560 l 49 0 l 209 0 l 209 217 l 593 217 l 649 295 z"},"4":{"x_min":0,"x_max":859,"ha":859,"o":"m 649 0 l 810 0 l 810 560 l 649 560 l 649 339 l 264 339 l 209 262 l 209 560 l 49 560 l 49 217 l 593 217 l 649 295 z"},"~":{"x_min":0,"x_max":576,"ha":576,"o":"m 316 340 l 361 276 l 406 340 l 547 340 l 462 218 l 260 218 l 215 282 l 170 218 l 29 218 l 114 340 z"},"D":{"x_min":0,"x_max":860,"ha":860,"o":"m 49 0 l 210 0 l 210 438 l 569 438 q 651 438 651 366 l 651 189 q 651 122 573 122 l 393 122 l 306 0 l 651 0 q 793 16 811 120 l 811 438 q 793 539 651 560 l 49 560 z"},"^":{"x_min":0,"x_max":828,"ha":828,"o":"m 499 0 l 24 0 l 302 560 l 779 560 l 779 0 l 619 0 l 619 438 l 429 438 l 272 122 l 586 122 z"},"0":{"x_min":0,"x_max":860,"ha":860,"o":"m 361 281 q 361 255 380 236 q 400 217 429 217 q 458 217 478 236 q 498 255 498 281 q 498 307 478 326 q 458 345 429 345 q 400 345 380 326 q 361 307 361 281 z m 49 438 l 49 120 q 67 16 209 0 l 651 0 q 793 16 811 120 l 811 438 q 793 539 651 560 l 209 560 q 67 539 49 438 z m 291 438 l 569 438 q 651 438 651 366 l 651 189 q 651 122 573 122 l 287 122 q 209 122 209 189 l 209 366 q 209 438 291 438 z"},"F":{"x_min":0,"x_max":797,"ha":797,"o":"m 264 339 l 209 262 l 209 438 l 748 438 l 748 560 l 49 560 l 49 0 l 209 0 l 209 217 l 660 217 l 747 339 z"},"`":{"x_min":0,"x_max":278,"ha":278,"o":"m 254 560 l 116 560 l 24 682 l 173 682 z"},"k":{"x_min":0,"x_max":860,"ha":860,"o":"m 49 560 l 210 560 l 210 306 l 263 379 l 543 379 l 631 560 l 810 560 l 719 362 q 756 347 780 322 q 804 296 811 259 l 811 0 l 651 0 l 651 190 q 651 257 573 257 l 210 257 l 210 0 l 49 0 z"},"u":{"x_min":0,"x_max":860,"ha":860,"o":"m 49 560 l 209 560 l 209 189 q 209 122 287 122 l 573 122 q 651 122 651 189 l 651 560 l 811 560 l 811 120 q 793 16 651 0 l 209 0 q 67 16 49 120 z"},"]":{"x_min":0,"x_max":491,"ha":491,"o":"m 282 32 l 282 528 l 49 528 l 49 650 l 442 650 l 442 -90 l 49 -90 l 49 32 z"},"U":{"x_min":0,"x_max":860,"ha":860,"o":"m 49 560 l 209 560 l 209 189 q 209 122 287 122 l 651 122 l 651 560 l 811 560 l 811 0 l 209 0 q 67 16 49 120 z"},"o":{"x_min":0,"x_max":860,"ha":860,"o":"m 49 438 l 49 120 q 67 16 209 0 l 651 0 q 793 16 811 120 l 811 438 q 793 539 651 560 l 209 560 q 67 539 49 438 z m 291 438 l 569 438 q 651 438 651 366 l 651 189 q 651 122 573 122 l 287 122 q 209 122 209 189 l 209 366 q 209 438 291 438 z"},"N":{"x_min":0,"x_max":860,"ha":860,"o":"m 49 0 l 210 0 l 210 438 l 569 438 q 651 438 651 366 l 651 0 l 811 0 l 811 438 q 793 539 651 560 l 49 560 z"},"+":{"x_min":0,"x_max":585,"ha":585,"o":"m 353 431 l 353 339 l 556 339 l 469 217 l 353 217 l 353 123 l 231 123 l 231 217 l 29 217 l 117 339 l 231 339 l 231 431 z"},"G":{"x_min":0,"x_max":860,"ha":860,"o":"m 811 339 l 308 339 l 395 217 l 651 217 l 651 189 q 651 122 573 122 l 287 122 q 209 122 209 189 l 209 366 q 209 438 291 438 l 724 438 l 810 560 l 209 560 q 67 539 49 438 l 49 120 q 67 16 209 0 l 651 0 q 793 16 811 120 z"},"q":{"x_min":0,"x_max":860,"ha":860,"o":"m 49 438 l 49 120 q 67 16 209 0 l 651 0 q 793 16 811 120 l 811 438 q 793 539 651 560 l 209 560 q 67 539 49 438 z m 291 438 l 569 438 q 651 438 651 366 l 651 189 q 651 122 573 122 l 287 122 q 209 122 209 189 l 209 366 q 209 438 291 438 z m 596 217 l 596 338 l 442 338 l 355 217 z"},"d":{"x_min":0,"x_max":860,"ha":860,"o":"m 49 0 l 210 0 l 210 438 l 569 438 q 651 438 651 366 l 651 189 q 651 122 573 122 l 393 122 l 306 0 l 651 0 q 793 16 811 120 l 811 438 q 793 539 651 560 l 49 560 z"},"1":{"x_min":0,"x_max":374,"ha":374,"o":"m 325 560 l 24 560 l 111 438 l 165 438 l 165 0 l 325 0 z"},"5":{"x_min":0,"x_max":860,"ha":860,"o":"m 811 560 l 49 560 l 49 338 q 67 236 209 220 l 573 220 q 651 220 651 173 q 651 143 631 132 q 611 122 569 122 l 49 122 l 49 0 l 651 0 q 793 21 811 122 l 811 222 q 793 326 651 342 l 287 342 q 248 342 228 352 q 209 363 209 387 l 209 438 l 723 438 z"}}}
